<?xml version="1.0" standalone="no"?>
<!DOCTYPE svg PUBLIC "-//W3C//DTD SVG 20010904//EN" "http://www.w3.org/TR/2001/REC-SVG-20010904/DTD/svg10.dtd">
<!-- Created using Krita: https://krita.org -->
<svg xmlns="http://www.w3.org/2000/svg" 
    xmlns:xlink="http://www.w3.org/1999/xlink"
    xmlns:krita="http://krita.org/namespaces/svg/krita"
    xmlns:sodipodi="http://sodipodi.sourceforge.net/DTD/sodipodi-0.dtd"
    width="450pt"
    height="450pt"
    viewBox="0 0 450 450">
<defs/>
<path id="shape0" transform="translate(43.4687530771125, 36.3437525727404)" fill="#ffffff" fill-rule="evenodd" stroke="#000000" stroke-opacity="0" stroke-width="0" stroke-linecap="square" stroke-linejoin="bevel" d="M144.063 0L0.03125 84.0625L0 102.156L90 212.188L171.031 39.0625L171 37.2188L145.063 0.09375Z"/><path id="shape1" transform="translate(215.601280300858, 16.4181358269486)" fill="#ffffff" fill-rule="evenodd" stroke="#000000" stroke-opacity="0" stroke-width="0" stroke-linecap="square" stroke-linejoin="bevel" d="M7.40252 0L0 6.01041Z"/><path id="shape2" transform="translate(216.59564922712, 15.4458639879369)" fill="#ffffff" fill-rule="evenodd" stroke="#000000" stroke-opacity="0" stroke-width="0" stroke-linecap="square" stroke-linejoin="bevel" d="M6.96058 0L0 6.76171Z"/><path id="shape3" transform="translate(215.048853119602, 15.4458639879369)" fill="#ffffff" fill-rule="evenodd" stroke="#000000" stroke-opacity="0" stroke-width="0" stroke-linecap="square" stroke-linejoin="bevel" d="M8.46318 0L0 9.98788Z"/><path id="shape4" transform="translate(214.89417350885, 16.1529707799454)" fill="#ffffff" fill-rule="evenodd" stroke="#000000" stroke-opacity="0" stroke-width="0" stroke-linecap="square" stroke-linejoin="bevel" d="M7.75608 0L0 10.4077Z"/><path id="shape5" transform="translate(193.548387225091, 15.4900581624374)" fill="#ffffff" fill-rule="evenodd" stroke="#000000" stroke-opacity="0" stroke-width="0" stroke-linecap="square" stroke-linejoin="bevel" d="M29.9195 0L0 17.0148L0 17.987L23.9532 52.9888L44.9013 8.04334L44.9234 6.98268L32.9026 0.0220971Z"/><path id="shape01" transform="translate(221.412816973769, 25.5000015444779)" fill="#ffffff" fill-rule="evenodd" stroke="#000000" stroke-opacity="0" stroke-width="0" stroke-linecap="square" stroke-linejoin="bevel" d="M22.8997 0L0.0871964 48.0625L0 48.9893L56.8337 131.743L102.056 46.0312Z"/><path id="shape11" transform="translate(281.450605068309, 75.4394577651048)" fill="#ffffff" fill-rule="evenodd" stroke="#000000" stroke-opacity="0" stroke-width="0" stroke-linecap="square" stroke-linejoin="bevel" d="M47.0447 0L49.0776 0.0441942L125.025 44.835L125.047 159.077L92.065 221.045L0 86.1123Z"/><path id="shape21" transform="translate(376.445983612451, 246.448803919579)" fill="#ffffff" fill-rule="evenodd" stroke="#000000" stroke-opacity="0" stroke-width="0" stroke-linecap="square" stroke-linejoin="bevel" d="M30.0078 0L30.0228 85.0512L25.054 88.0356L23.1009 88.02L0 54.9997L0.0696139 54.0668Z"/><path id="shape31" transform="translate(339.468761601191, 305.468734480298)" fill="#ffffff" fill-rule="evenodd" stroke="#000000" stroke-opacity="0" stroke-width="0" stroke-linecap="square" stroke-linejoin="bevel" d="M56.0625 32.0625L0 65.0313L0 64.0313L34.0625 0L35.0313 0.046912Z"/><path id="shape41" transform="translate(193.468737027835, 167.453116226279)" fill="#ffffff" fill-rule="evenodd" stroke="#000000" stroke-opacity="0" stroke-width="0" stroke-linecap="square" stroke-linejoin="bevel" d="M73 244.078L76.0625 244.016L137.063 208.047L178.078 134L85.0312 0L0.03125 154L0 155.047Z"/><path id="shape51" transform="translate(43.442873481236, 148.470329054133)" fill="#ffffff" fill-rule="evenodd" stroke="#000000" stroke-opacity="0" stroke-width="0" stroke-linecap="square" stroke-linejoin="bevel" d="M0 0L0.0727515 182.045L40.0259 205.998L87.0846 106.022Z"/><path id="shape6" transform="translate(88.4687533333307, 258.546875231189)" fill="#ffffff" fill-rule="evenodd" stroke="#000000" stroke-opacity="0" stroke-width="0" stroke-linecap="square" stroke-linejoin="bevel" d="M46 0L0 98.9375L60.0679 133.986L61.0401 133.942L99.025 64.9987Z"/><path id="shape7" transform="translate(154.499989377416, 327.500001576309)" fill="#ffffff" fill-rule="evenodd" stroke="#000000" stroke-opacity="0" stroke-width="0" stroke-linecap="square" stroke-linejoin="bevel" d="M35.9375 3.73775e-06L0.015625 66.9843L0 67.9687L67.9735 107.967L72.9895 107.945L107.984 88L108 86.9375L37.0156 0Z"/><path id="shape8" transform="translate(137.499992114096, 79.4374940376658)" fill="#ffffff" fill-rule="evenodd" stroke="#000000" stroke-opacity="0" stroke-width="0" stroke-linecap="square" stroke-linejoin="bevel" d="M81 0L0 173.047L0 174.062L52.0046 239.07L52.999 239.07L137.984 83.0938Z"/>
</svg>
